<svg id="Layer_1" data-name="Layer 1" xmlns="http://www.w3.org/2000/svg" xmlns:xlink="http://www.w3.org/1999/xlink" viewBox="0 0 1381.82 1026.89"><defs><style>.cls-1{fill:url(#linear-gradient);}.cls-2{fill:url(#linear-gradient-2);}.cls-3{fill:url(#linear-gradient-3);}.cls-4{fill:#fff;}.cls-5{fill:#1b75bc;}</style><linearGradient id="linear-gradient" x1="-19.15" y1="501.1" x2="296.88" y2="516.69" gradientUnits="userSpaceOnUse"><stop offset="0" stop-color="#262262"/><stop offset="0.18" stop-color="#1b75bc"/><stop offset="0.3" stop-color="#1daad2"/></linearGradient><linearGradient id="linear-gradient-2" x1="-19.49" y1="507.95" x2="296.54" y2="523.54" xlink:href="#linear-gradient"/><linearGradient id="linear-gradient-3" x1="-19.42" y1="506.6" x2="296.61" y2="522.19" xlink:href="#linear-gradient"/></defs><title>Albadael logo SVG</title><rect class="cls-1" x="72.33" y="354.56" width="317.77" height="317.77" rx="25.23"/><path class="cls-2" d="M17.53,449.11V571.93a14.75,14.75,0,0,0,3.1,8.91L30,593.28c1.62,2.15,5.78,1.24,5.78-1.28V429c0-2.51-4.16-3.43-5.78-1.27L20.63,440.2A14.75,14.75,0,0,0,17.53,449.11Z"/><path class="cls-3" d="M57.37,391.32,46.71,405.5a14.8,14.8,0,0,0-3.09,8.91V606.63a14.85,14.85,0,0,0,3.09,8.92l10.66,14.17c1.62,2.16,5.77,1.24,5.77-1.27V392.6C63.14,390.08,59,389.16,57.37,391.32Z"/><path class="cls-4" d="M458.32,420.93h23.39q24.94,0,36.4,10.63,12.3,11.49,12.3,37.57,0,13.51-3.5,21-3.74,8-13,16.53,9.76,5.52,15.55,22.23,2.89,8.42,2.89,22.11,0,21.94-8.55,35.08-10,15.18-32.67,16.27H458.32Zm38.46,72.31q8-5.44,8-21.56t-8-21.69c-2.66-1.77-6.59-2.66-11.82-2.66v48.58C490.19,495.91,494.12,495,496.78,493.24Zm0,79.93q8-5.79,8-25.19t-8-25.07c-2.58-1.85-6.51-2.78-11.82-2.78v55.81C490.27,575.94,494.2,575,496.78,573.17Z"/><path class="cls-4" d="M554.51,537.68q7-8.7,19.53-15.33c.56-.32,1.39-.76,2.47-1.33l2.41-1.26,2-1.09c.8-.44,1.43-.8,1.87-1.09a14.73,14.73,0,0,0,1.39-1,5.6,5.6,0,0,0,1.08-1.15,6,6,0,0,0,.6-1.15V499.42a32.35,32.35,0,0,0-.72-8.21,6.15,6.15,0,0,0-6.15-4.1q-5.29,0-6.63,7.12a53.65,53.65,0,0,0-.48,6.4V507h-25v-5.67a37.1,37.1,0,0,1,9.64-25.45,30.52,30.52,0,0,1,23.87-10.61A29.66,29.66,0,0,1,601.64,474a29.19,29.19,0,0,1,9.16,21.95v83a146.51,146.51,0,0,0,1.69,23.4H588.14q-2.28-2.88-2.29-10.79h-1.68a27.46,27.46,0,0,1-6.88,8,20.61,20.61,0,0,1-13.13,4.68,15.19,15.19,0,0,1-12.3-6.13q-7.71-8.52-7.71-27Q544.15,550.59,554.51,537.68Zm15.31,37.17c1.13,3.46,3,5.19,5.67,5.19a11.57,11.57,0,0,0,7.35-2.35,7.16,7.16,0,0,0,3-5.86V537.19a25.66,25.66,0,0,0-13,11.89,38.67,38.67,0,0,0-4.28,18.29A22.91,22.91,0,0,0,569.82,574.85Z"/><path class="cls-4" d="M626.84,491.69a32.08,32.08,0,0,1,4.7-17.48q5.41-8.93,14.46-8.92,6,0,13.38,5.42,2.29,1.82,6.39,5.43V420.93h25v181.4h-25v-9q-7,6.67-12.54,9.21a15.89,15.89,0,0,1-7.23,1.7q-9.16,0-14.46-9-4.71-7.11-4.7-17.36Zm26.88,86.73a5.88,5.88,0,0,0,4.7,2.35,6.92,6.92,0,0,0,5.12-2.35,8.18,8.18,0,0,0,2.23-5.84V497a8.34,8.34,0,0,0-2.29-5.6,6.71,6.71,0,0,0-5.06-2.58,5.87,5.87,0,0,0-4.7,2.34,8.88,8.88,0,0,0-1.93,5.84v75.6A8.88,8.88,0,0,0,653.72,578.42Z"/><path class="cls-4" d="M716.88,537.68q7-8.7,19.52-15.33c.56-.32,1.39-.76,2.47-1.33l2.41-1.26,2-1.09c.81-.44,1.43-.8,1.87-1.09a13.54,13.54,0,0,0,1.39-1,5.6,5.6,0,0,0,1.08-1.15,6.64,6.64,0,0,0,.61-1.15V499.42a32.23,32.23,0,0,0-.73-8.21,6.13,6.13,0,0,0-6.14-4.1q-5.31,0-6.63,7.12a51.91,51.91,0,0,0-.49,6.4V507h-25v-5.67a37.11,37.11,0,0,1,9.65-25.45,30.48,30.48,0,0,1,23.86-10.61A29.68,29.68,0,0,1,764,474a29.23,29.23,0,0,1,9.16,21.95v83a146.58,146.58,0,0,0,1.68,23.4H750.51q-2.29-2.88-2.29-10.79h-1.69a27.58,27.58,0,0,1-6.87,8,20.66,20.66,0,0,1-13.14,4.68,15.21,15.21,0,0,1-12.3-6.13q-7.71-8.52-7.71-27Q706.51,550.59,716.88,537.68Zm15.3,37.17q1.7,5.19,5.67,5.19a11.57,11.57,0,0,0,7.35-2.35,7.17,7.17,0,0,0,3-5.86V537.19a25.64,25.64,0,0,0-13,11.89A38.67,38.67,0,0,0,731,567.37,22.91,22.91,0,0,0,732.18,574.85Z"/><path class="cls-4" d="M788.23,500.85q1.1-19.65,13.75-30.14,6.13-5.41,18.56-5.42,20,0,28.08,17.61a50.25,50.25,0,0,1,4,17.26v39.33H811.38v29.32a20.39,20.39,0,0,0,4,11.71,7,7,0,0,0,5.18,1.93q6.15,0,7.83-6.63a19.93,19.93,0,0,0,1.09-7V554.09H852.6v15.52a47.57,47.57,0,0,1-3.8,17A33.46,33.46,0,0,1,839,598.85q-6.51,5.42-18.68,5.42-20.25,0-28.21-17.72a51.57,51.57,0,0,1-3.86-17.84Zm41.23,19.08V500.87q0-7.49-3.5-11.83a7.3,7.3,0,0,0-5.42-1.93q-5.79,0-8,6.88a26.16,26.16,0,0,0-1.2,6.88v19.06Z"/><path class="cls-4" d="M869.6,420.93h24.95V602.34H869.6Z"/><path class="cls-4" d="M950.48,458.18q.36-11.44,4.34-19.53a33.86,33.86,0,0,1,10.36-13.5q8.33-6.27,20.73-6.27,12.18,0,20.5,6.27a33.11,33.11,0,0,1,10.72,13.5q4,8.09,4.34,19.53V565.09q-.36,11.7-4.34,19.77a33.08,33.08,0,0,1-10.72,13.26q-7.6,6.15-20.5,6.15-13.12,0-20.73-6.15a33.75,33.75,0,0,1-10.36-13.26q-4-8.07-4.34-19.77Zm30.25,118.25a7,7,0,0,0,5.18,1.92q6.27,0,8-6.63a17.79,17.79,0,0,0,1-6.63V458.18q0-7.11-3.37-11.33a7.5,7.5,0,0,0-5.55-2.05c-3.85,0-6.47,2.25-7.83,6.75a19.06,19.06,0,0,0-1,6.63V565.09C977.12,569.84,978.32,573.61,980.73,576.43Z"/><path class="cls-4" d="M1039.43,467.34h25v11.33c.15-.08,1.12-1,2.89-2.77q6.39-6.39,10.85-8.8a13.22,13.22,0,0,1,6.5-1.81q8.8,0,14.23,8.92a34.31,34.31,0,0,1,4.46,17.48V602.34h-24.83V495.43q0-5.91-6-5.91-2.65,0-5.91,3.25c-1,1.29-1.68,2.33-2.16,3.14V602.34h-25Z"/><path class="cls-4" d="M1122.6,420.93h25V602.34h-25Z"/><path class="cls-4" d="M1167.2,420.93h25v24.95h-25Zm0,46.41h25v135h-25Z"/><path class="cls-4" d="M1211.8,467.34h25v11.33c.16-.08,1.12-1,2.89-2.77q6.39-6.39,10.85-8.8a13.26,13.26,0,0,1,6.51-1.81q8.8,0,14.22,8.92a34.21,34.21,0,0,1,4.46,17.48V602.34h-24.83V495.43q0-5.91-6-5.91-2.65,0-5.91,3.25c-1,1.29-1.69,2.33-2.17,3.14V602.34h-25Z"/><path class="cls-4" d="M1293,500.85q1.1-19.65,13.74-30.14,6.15-5.41,18.57-5.42,20,0,28.08,17.61a50.25,50.25,0,0,1,4,17.26v39.33h-41.22v29.32a20.45,20.45,0,0,0,4,11.71,7,7,0,0,0,5.19,1.93q6.14,0,7.83-6.63a20.16,20.16,0,0,0,1.09-7V554.09h23.14v15.52a47.57,47.57,0,0,1-3.8,17,33.46,33.46,0,0,1-9.82,12.27q-6.51,5.42-18.68,5.42-20.25,0-28.21-17.72a51.34,51.34,0,0,1-3.86-17.84Zm41.23,19.08V500.87q0-7.49-3.5-11.83a7.31,7.31,0,0,0-5.42-1.93q-5.79,0-8,6.88a26.16,26.16,0,0,0-1.2,6.88v19.06Z"/><rect class="cls-5" x="332.43" y="532.4" width="36.09" height="6.02"/><rect class="cls-5" x="332.43" y="554.35" width="36.09" height="6.02"/><rect class="cls-5" x="332.43" y="510.44" width="36.09" height="6.02"/><rect class="cls-5" x="332.43" y="488.48" width="36.09" height="6.02"/><rect class="cls-5" x="332.43" y="466.52" width="36.09" height="6.02"/><rect class="cls-5" x="93.91" y="532.4" width="36.09" height="6.02"/><rect class="cls-5" x="93.91" y="554.35" width="36.09" height="6.02"/><rect class="cls-5" x="93.91" y="510.44" width="36.09" height="6.02"/><rect class="cls-5" x="93.91" y="488.48" width="36.09" height="6.02"/><rect class="cls-5" x="93.9" y="466.52" width="36.09" height="6.02"/><rect class="cls-4" x="206.25" y="376.14" width="6.02" height="36.09"/><rect class="cls-4" x="184.29" y="376.14" width="6.02" height="36.09"/><rect class="cls-4" x="228.2" y="376.14" width="6.02" height="36.09"/><rect class="cls-4" x="250.16" y="376.14" width="6.02" height="36.09"/><rect class="cls-4" x="272.12" y="376.13" width="6.02" height="36.09"/><rect class="cls-4" x="206.25" y="614.67" width="6.02" height="36.09"/><rect class="cls-4" x="184.29" y="614.67" width="6.02" height="36.09"/><rect class="cls-4" x="228.2" y="614.67" width="6.02" height="36.09"/><rect class="cls-4" x="250.16" y="614.67" width="6.02" height="36.09"/><rect class="cls-4" x="272.12" y="614.66" width="6.02" height="36.09"/><path class="cls-4" d="M318.17,410.75H144.24a15.73,15.73,0,0,0-15.72,15.73V600.41a15.73,15.73,0,0,0,15.72,15.73H318.17a15.73,15.73,0,0,0,15.73-15.73V426.48A15.73,15.73,0,0,0,318.17,410.75Zm-80.49,182a34.41,34.41,0,0,1-18.78,9.34c-4.58.64-9.48.54-13.18-4.85v0l-.18-.3-.44-.69h0c-4.69-7.9-33.68-61.85,12.91-113-.57,1.1-27.82,53.66-1.1,106.56,19.18-12.18,53.19-41.81,34.65-91.44-7.32,9.26-17.37,19.15-31,29.37,1.07-1.34,40-50,29.45-89.54-42.47,17.26-79.15,92.41-79.15,92.41-1.53-53.06,49.46-92.26,65.38-101.77a30.64,30.64,0,0,1,12-4.19c15.15-1.79,18.54,10.05,18.54,10.05s11.13,21.69-7.54,52.69C259.21,487.42,299.72,533,237.68,592.78Z"/></svg>